<?xml version="1.0" encoding="UTF-8" standalone="no"?>
<!-- Generator: Adobe Illustrator 19.0.0, SVG Export Plug-In . SVG Version: 6.00 Build 0)  -->

<svg
   version="1.1"
   id="Layer_1"
   x="0px"
   y="0px"
   viewBox="0 0 595.3 841.9"
   xml:space="preserve"
   sodipodi:docname="BionxBoard_outline.svg"
   width="157.50645mm"
   height="222.75272mm"
   inkscape:version="1.3.2 (091e20e, 2023-11-25, custom)"
   xmlns:inkscape="http://www.inkscape.org/namespaces/inkscape"
   xmlns:sodipodi="http://sodipodi.sourceforge.net/DTD/sodipodi-0.dtd"
   xmlns="http://www.w3.org/2000/svg"
   xmlns:svg="http://www.w3.org/2000/svg"><defs
   id="defs1" /><sodipodi:namedview
   id="namedview1"
   pagecolor="#ffffff"
   bordercolor="#999999"
   borderopacity="1"
   inkscape:showpageshadow="0"
   inkscape:pageopacity="0"
   inkscape:pagecheckerboard="0"
   inkscape:deskcolor="#d1d1d1"
   inkscape:document-units="mm"
   inkscape:zoom="2.6708629"
   inkscape:cx="288.67075"
   inkscape:cy="348.76369"
   inkscape:window-width="1920"
   inkscape:window-height="1051"
   inkscape:window-x="-9"
   inkscape:window-y="-9"
   inkscape:window-maximized="1"
   inkscape:current-layer="Layer_1" />
<style
   type="text/css"
   id="style1">
	.st0{fill:#FFFFFF;stroke:#000000;stroke-miterlimit:10;}
	.st1{fill:none;stroke:#000000;stroke-miterlimit:10;}
</style>
<line
   id="XMLID_2_"
   class="st0"
   x1="105.6"
   y1="219.39999"
   x2="105.6"
   y2="474.5" />
<line
   id="XMLID_1_"
   class="st1"
   x1="105.6"
   y1="474.5"
   x2="251.60001"
   y2="474.5" />
<line
   id="XMLID_3_"
   class="st1"
   x1="105.6"
   y1="219.39999"
   x2="261.5"
   y2="219.39999" />
<line
   id="XMLID_4_"
   class="st1"
   x1="261.5"
   y1="219.39999"
   x2="261.5"
   y2="213.7" />
<circle
   id="XMLID_5_"
   class="st1"
   cx="261.5"
   cy="213.7"
   r="3.7" />
<circle
   id="XMLID_6_"
   class="st1"
   cx="105.6"
   cy="219.39999"
   r="3.7" />
<circle
   id="XMLID_7_"
   class="st1"
   cx="105.6"
   cy="474.5"
   r="3.7" />
<circle
   id="XMLID_8_"
   class="st1"
   cx="251.60001"
   cy="474.39999"
   r="3.7" />
<path
   id="XMLID_9_"
   class="st1"
   d="m 106.6,485.6 h 154.1 c 7.3,0 13.3,-6 13.3,-13.3 v -257 C 274,208 268,202 260.7,202 H 106.6 c -7.3,0 -13.3,6 -13.3,13.3 v 257 c 0,7.3 6,13.3 13.3,13.3 z" />
</svg>
